<?xml version="1.0" encoding="UTF-8" standalone="no"?>
<svg
   xmlns:dc="http://purl.org/dc/elements/1.1/"
   xmlns:cc="http://creativecommons.org/ns#"
   xmlns:rdf="http://www.w3.org/1999/02/22-rdf-syntax-ns#"
   xmlns:svg="http://www.w3.org/2000/svg"
   xmlns="http://www.w3.org/2000/svg"
   xmlns:sodipodi="http://sodipodi.sourceforge.net/DTD/sodipodi-0.dtd"
   xmlns:inkscape="http://www.inkscape.org/namespaces/inkscape"
   width="208"
   height="41.070999"
   viewBox="0 0 208 41.070999"
   fill="none"
   version="1.1"
   id="svg51"
   sodipodi:docname="amazon.svg"
   inkscape:version="1.0.2-2 (e86c870879, 2021-01-15)">
  <metadata
     id="metadata55">
    <rdf:RDF>
      <cc:Work
         rdf:about="">
        <dc:format>image/svg+xml</dc:format>
        <dc:type
           rdf:resource="http://purl.org/dc/dcmitype/StillImage" />
      </cc:Work>
    </rdf:RDF>
  </metadata>
  <sodipodi:namedview
     pagecolor="#ffffff"
     bordercolor="#666666"
     borderopacity="1"
     objecttolerance="10"
     gridtolerance="10"
     guidetolerance="10"
     inkscape:pageopacity="0"
     inkscape:pageshadow="2"
     inkscape:window-width="1920"
     inkscape:window-height="1027"
     id="namedview53"
     showgrid="false"
     inkscape:zoom="4.0865385"
     inkscape:cx="104"
     inkscape:cy="20.535"
     inkscape:window-x="-8"
     inkscape:window-y="-8"
     inkscape:window-maximized="1"
     inkscape:current-layer="svg51" />
  <g
     clip-path="url(#clip0)"
     id="g44"
     transform="translate(0,-83.465)">
    <path
       d="m 84.1271,115.593 c -7.9489,5.962 -19.2104,8.943 -29.1464,8.943 -13.9107,0 -26.1658,-4.969 -35.4396,-13.58 -0.6621,-0.662 0,-1.656 0.6622,-0.993 10.2673,5.962 22.5224,9.274 35.4396,9.274 8.6116,0 18.2169,-1.657 27.1593,-5.631 1.3249,-0.663 2.3191,0.994 1.3249,1.987 z"
       fill="#f7981d"
       id="path2" />
    <path
       d="m 84.1271,115.593 c -7.9489,5.962 -19.2104,8.943 -29.1464,8.943 -13.9107,0 -26.1658,-4.969 -35.4396,-13.58 -0.6621,-0.662 0,-1.656 0.6622,-0.993 10.2673,5.962 22.5224,9.274 35.4396,9.274 8.6116,0 18.2169,-1.657 27.1593,-5.631 1.3249,-0.663 2.3191,0.994 1.3249,1.987 z"
       fill="#f7981d"
       id="path4" />
    <path
       d="m 84.1271,113.606 c -7.9489,5.631 -19.2104,8.612 -28.8156,8.612 -12.9172,0 -24.5095,-4.637 -33.4526,-11.924 -0.3314,-0.331 -0.9935,-0.331 -1.3249,-0.662 -0.9935,-0.662 -1.6563,0.332 -0.6621,0.994 9.2738,8.611 21.8602,13.579 35.4396,13.579 9.9366,0 21.1974,-2.981 29.1463,-8.942 0.3321,-0.332 0.3321,-1.326 -0.3307,-1.657 z"
       fill="#e86e00"
       id="path6" />
    <path
       d="m 87.1084,111.618 c -0.9936,-1.324 -6.624,-0.662 -9.2739,-0.331 -0.6621,0 -0.9935,-0.662 -0.3314,-0.993 4.6369,-3.312 11.9237,-2.319 12.5858,-1.325 0.9935,0.993 -0.3314,8.611 -4.3055,11.923 -0.6621,0.662 -1.3249,0.332 -0.9935,-0.331 1.3249,-2.318 3.312,-7.618 2.3185,-8.943 z"
       fill="#f7981d"
       id="path8" />
    <path
       d="m 90.7517,109.3 c 0.9936,0.994 -0.3314,8.612 -4.3055,11.924 -0.6621,0.662 -1.3249,0.331 -0.9935,-0.332 0.9935,-2.318 2.9806,-7.618 1.987,-8.942"
       fill="#e86e00"
       id="path10" />
    <path
       d="M 78.1653,88.1025 V 85.122 c 0,-0.3314 0.3314,-0.6622 0.6621,-0.6622 h 13.9107 c 0.3314,0 0.6621,0.3314 0.6621,0.6622 v 2.6498 c 0,0.3314 -0.3313,0.9935 -0.9935,1.9871 L 85.12,100.026 c 2.6498,0 5.2997,0.332 7.9489,1.657 0.6621,0.331 0.6621,0.662 0.6621,1.324 v 3.312 c 0,0.332 -0.3314,0.994 -0.9936,0.663 -4.3055,-2.319 -9.9366,-2.319 -14.5735,0 -0.3314,0.331 -0.9935,-0.332 -0.9935,-0.663 v -2.98 c 0,-0.332 0,-1.325 0.6621,-1.987 l 8.2803,-11.9238 h -7.2867 c -0.3294,-0.6628 -0.6608,-0.9943 -0.6608,-1.3257 z"
       fill="#000000"
       id="path12" />
    <path
       d="m 28.1528,107.313 h -4.3055 c -0.3314,0 -0.6621,-0.331 -0.6621,-0.662 V 85.122 c 0,-0.3314 0.3314,-0.6621 0.6621,-0.6621 h 3.9748 c 0.3314,0 0.6621,0.3314 0.6621,0.6621 v 2.6498 c 0.9936,-2.6498 2.9806,-3.9747 5.6305,-3.9747 2.6498,0 4.3055,1.3249 5.2997,3.9747 0.9935,-2.6498 3.312,-3.9747 5.6304,-3.9747 1.6563,0 3.6434,0.6621 4.9683,2.3184 1.3249,1.6563 0.9935,4.3055 0.9935,6.624 v 13.5795 c 0,0.331 -0.3314,0.662 -0.6621,0.662 H 46.039 c -0.3314,0 -0.6621,-0.331 -0.6621,-0.662 V 95.0579 c 0,-0.9935 0,-3.3119 0,-3.9747 -0.3314,-1.325 -1.3249,-1.9871 -2.3185,-1.9871 -0.9935,0 -1.987,0.6621 -2.6498,1.6563 -0.3314,0.9935 -0.3314,2.9806 -0.3314,3.9748 v 11.2608 c 0,0.331 -0.3314,0.662 -0.6621,0.662 h -4.3056 c -0.3314,0 -0.6621,-0.331 -0.6621,-0.662 V 94.7272 c 0,-2.3185 0.3314,-5.9618 -2.6498,-5.9618 -2.9813,0 -2.9806,3.3119 -2.9806,5.9618 v 11.2608 c -0.002,0.994 -0.3328,1.325 -0.6642,1.325 z"
       fill="#000000"
       id="path14" />
    <path
       d="m 105.325,83.7971 c 6.293,0 9.605,5.2997 9.605,12.255 0,6.6239 -3.644,11.9239 -9.605,11.9239 -5.9622,0 -9.2742,-5.3 -9.2742,-11.9239 0,-6.956 3.3126,-12.255 9.2742,-12.255 z m 0,4.3055 c -2.981,0 -3.312,4.3055 -3.312,6.9553 0,2.6499 0,8.2801 3.312,8.2801 3.312,0 3.312,-4.6367 3.312,-7.2865 0,-1.6564 0,-3.9748 -0.663,-5.6305 -0.33,-1.6556 -1.324,-2.3184 -2.649,-2.3184 z"
       fill="#000000"
       id="path16" />
    <path
       d="m 123.21,107.313 h -4.305 c -0.332,0 -0.663,-0.331 -0.663,-0.662 V 85.122 c 0,-0.3314 0.332,-0.6621 0.663,-0.6621 h 3.974 c 0.332,0 0.662,0.3314 0.662,0.6621 v 3.312 c 1.325,-2.9806 2.65,-4.3055 5.631,-4.3055 1.987,0 3.643,0.6621 4.968,2.6498 0.994,1.6564 0.994,4.6369 0.994,6.624 v 13.5797 c 0,0.332 -0.332,0.662 -0.662,0.662 h -4.306 c -0.331,0 -0.662,-0.331 -0.662,-0.662 V 95.39 c 0,-2.3184 0.331,-5.6304 -2.65,-5.6304 -0.993,0 -1.987,0.6621 -2.318,1.6563 -0.662,1.3249 -0.662,2.6499 -0.662,3.9748 v 11.5923 c -10e-4,-0.001 -0.332,0.33 -0.664,0.33 z"
       fill="#000000"
       id="path18" />
    <path
       d="m 140.104,107.644 c 1.097,0 1.987,-0.889 1.987,-1.987 0,-1.097 -0.89,-1.987 -1.987,-1.987 -1.097,0 -1.987,0.89 -1.987,1.987 0,1.098 0.89,1.987 1.987,1.987 z"
       fill="#e86e00"
       id="path20" />
    <path
       d="m 182.497,107.313 c -0.331,0 -0.662,-0.331 -0.662,-0.662 V 85.122 c 0,-0.3314 0.331,-0.6621 0.662,-0.6621 h 1.325 c 0.331,0 0.662,0.3314 0.662,0.6621 v 2.9806 c 0.994,-2.3185 2.981,-4.3055 5.631,-4.3055 2.649,0 4.636,1.987 5.63,4.9683 0.993,-2.9806 3.312,-4.9683 6.293,-4.9683 1.987,0 3.975,1.3249 4.968,3.3119 C 208,89.0961 208,91.4145 208,93.733 v 12.917 c 0,0.332 -0.331,0.662 -0.662,0.662 h -1.987 c -0.332,0 -0.662,-0.331 -0.662,-0.662 V 93.733 c 0,-1.6563 0,-3.312 -0.662,-4.6369 -0.663,-1.3249 -1.987,-2.3185 -3.312,-2.3185 -1.325,0 -2.65,0.9936 -3.644,2.6499 -0.993,1.987 -0.993,3.6434 -0.993,5.6304 V 106.65 c 0,0.332 -0.332,0.662 -0.662,0.662 h -1.988 c -0.331,0 -0.662,-0.331 -0.662,-0.662 V 92.7395 c 0,-1.3249 0,-2.6499 -0.662,-3.9748 -0.662,-1.3249 -1.987,-1.9871 -3.312,-2.3185 -1.325,0 -2.65,0.9936 -3.312,2.3185 -0.993,1.6563 -1.325,3.312 -1.325,5.2997 v 12.2546 c 0,0.332 -0.331,0.663 -0.662,0.663 H 182.5 v 0.331 z"
       fill="#f7981d"
       id="path22" />
    <path
       d="m 169.911,107.644 c -5.962,0 -8.611,-5.961 -8.611,-12.2547 0,-6.2932 2.98,-11.9237 9.273,-11.9237 5.962,0 8.612,5.9619 8.612,11.9237 0,6.6247 -2.981,12.2547 -9.274,12.2547 z m 0.332,-2.981 c 1.987,0 3.643,-1.325 4.305,-3.312 0.662,-1.6562 0.994,-3.9746 0.994,-5.9617 0,-2.3185 -0.332,-4.3055 -1.325,-6.2932 -0.994,-1.6564 -2.319,-2.6499 -4.306,-2.6499 -1.987,0 -3.643,1.3249 -4.305,3.312 -0.662,1.6563 -0.994,3.9748 -0.994,5.6304 0,1.9871 0.332,4.6374 0.994,6.2934 1.324,1.988 2.98,2.981 4.637,2.981 z"
       fill="#f7981d"
       id="path24" />
    <path
       d="m 151.032,104.663 c 2.65,0 3.975,-2.318 4.637,-4.9682 0,-0.3314 0.332,-0.6621 0.662,-0.6621 h 1.657 c 0.331,0 0.662,0.3314 0.662,0.6621 -0.662,4.6372 -3.644,7.9492 -7.618,7.9492 -5.962,0 -8.612,-5.962 -8.612,-11.924 0,-5.9618 2.65,-11.9236 8.612,-11.9236 3.974,0 6.955,3.312 7.618,7.9489 0,0.3314 -0.332,0.6621 -0.662,0.6621 h -1.987 c -0.332,0 -0.663,-0.3314 -0.663,-0.6621 -0.331,-2.6499 -1.987,-4.6369 -4.637,-4.9683 -3.974,0 -5.299,4.9683 -5.299,8.9424 0.662,3.6447 1.655,8.9436 5.63,8.9436 z"
       fill="#f7981d"
       id="path26" />
    <path
       d="m 74.8533,103.338 c -0.9935,-0.993 -1.6563,-1.987 -1.6563,-3.9746 v -6.6239 c 0,-2.9806 0,-5.2991 -1.9871,-7.2868 -1.6563,-1.3249 -4.3055,-1.9877 -6.2932,-1.9877 -3.9741,0 -8.2803,1.3249 -9.2738,6.2932 0,0.6621 0.3314,0.9935 0.6621,0.9935 l 3.9748,0.6628 c 0.3314,0 0.6628,-0.3314 0.6628,-0.6628 0.3314,-1.987 1.6563,-2.6498 3.312,-2.6498 0.9935,0 1.6563,0.3314 2.3184,0.9935 0.6621,0.6628 0.6621,1.987 0.6621,2.9812 v 0.6622 c -2.6498,0 -5.6304,0.3314 -7.9488,1.3249 -2.3185,1.3249 -4.3062,3.6434 -4.3062,6.9553 0,4.306 2.6498,6.624 6.2932,6.624 2.9813,0 4.6369,-0.662 6.9554,-2.981 0.6628,0.994 0.9935,1.657 2.3184,2.65 0.3314,0 0.6621,0 0.9935,0 0.6628,-0.993 2.3185,-2.318 3.312,-2.981 0.3321,10e-4 0.3321,-0.661 7e-4,-0.993 z m -7.6902,-6.2728 c 0,1.6563 0,2.9808 -0.6622,4.3058 -0.6621,1.325 -1.6563,1.987 -2.9812,1.987 -1.6563,0 -2.6499,-1.325 -2.6499,-2.981 0,-3.6432 3.312,-4.3054 6.2933,-4.3054 z"
       fill="#000000"
       id="path28" />
    <path
       d="m 19.8725,103.338 c -0.9935,-0.993 -1.6563,-1.987 -1.6563,-3.9746 v -6.6239 c 0,-2.9806 0,-5.2991 -1.987,-7.2868 -1.6564,-1.3249 -4.3055,-1.9877 -6.29326,-1.9877 -3.97411,0 -8.28029,1.3249 -9.273814,6.2932 0,0.6621 0.3314,0.9935 0.662124,0.9935 l 3.97478,0.6628 c 0.3314,0 0.66213,-0.3314 0.66213,-0.6628 0.3314,-1.987 1.65633,-2.6498 3.31198,-2.6498 0.99356,0 1.65636,0.3314 2.31846,0.9935 0.6621,0.6628 0.6621,1.9871 0.6621,2.9813 v 0.6621 c -2.64984,0 -5.63042,0.3314 -7.94887,1.3249 C 1.98705,95.3893 0,97.7078 0,101.02 c 0,4.306 2.64985,6.624 6.29323,6.624 2.98126,0 4.63687,-0.662 6.95537,-2.981 0.6621,0.994 0.9935,1.656 2.3184,2.65 0.3314,0 0.6622,0 0.9936,0 0.6621,-0.994 2.3184,-2.318 3.3119,-2.981 0.3314,0 0.3314,-0.662 0,-0.994 z m -8.0546,-6.2728 c 0,1.6563 0,2.9808 -0.6621,4.3058 -0.6628,1.325 -1.65634,1.987 -2.98127,1.987 -1.65632,0 -2.64985,-1.325 -2.64985,-2.981 0,-3.6432 3.31198,-4.3054 6.29322,-4.3054 z"
       fill="#000000"
       id="path30" />
    <path
       d="m 129.503,83.7971 c -2.98,0 -4.637,1.3249 -5.63,4.3055 v -3.312 c 0,-0.3314 -0.332,-0.6621 -0.662,-0.6621 h -3.975 c -0.331,0 -0.662,0.3314 -0.662,0.6621 v 6.6239 c 5.63,-1.987 10.599,-3.9747 14.904,-6.2932 -1.325,-0.9928 -2.65,-1.3242 -3.975,-1.3242 z"
       fill="#545e60"
       id="path32" />
    <path
       d="m 105.325,83.7971 c -5.9623,0 -9.2742,5.2997 -9.2742,11.9236 0,0.6622 0,0.9936 0,1.6564 1.987,-0.3314 3.9752,-0.9936 5.9622,-1.325 0,-0.3314 0,-0.6621 0,-0.9935 0,-2.6499 0.331,-6.9554 3.312,-6.9554 1.325,0 2.318,0.6622 2.649,1.9871 0.332,1.3249 0.663,2.6498 0.663,3.9748 1.987,-0.6622 3.974,-0.9936 5.961,-1.6564 -0.993,-4.9683 -3.974,-8.6116 -9.273,-8.6116 z"
       fill="#545e60"
       id="path34" />
    <path
       d="M 92.7388,84.1284 H 78.8281 c -0.3314,0 -0.6622,0.3314 -0.6622,0.6621 v 2.9806 c 0,0.3314 0.3314,0.6621 0.6622,0.6621 h 7.2867 l -7.6181,11.2609 c 2.6498,-0.3314 4.9683,-0.6621 7.2867,-0.9935 l 6.624,-9.6052 c 0.6621,-0.9936 0.9935,-1.6563 0.9935,-1.9871 v -2.6498 c 0.3314,6e-4 -0.3307,-0.3301 -0.6621,-0.3301 z"
       fill="#545e60"
       id="path36" />
    <path
       d="m 71.2099,85.7841 c -1.6563,-1.6563 -4.3055,-1.987 -6.2932,-1.987 -3.9748,0 -8.2803,1.3249 -9.2738,6.2932 0,0.6621 0.3314,0.6621 0.6621,0.9935 l 3.9748,0.3314 c 0.3314,0 0.6621,-0.3314 0.6621,-0.6621 0.3314,-1.6563 1.6563,-2.6499 3.312,-2.6499 0.9935,0 1.987,0.3314 2.3184,0.9936 0.6622,0.9935 0.6622,1.987 0.6622,2.9805 v 0.6622 c -2.3185,0.3314 -5.6305,0.3314 -7.9489,1.3249 -2.6499,0.9935 -4.3055,3.312 -4.3055,6.9556 0.9935,0 1.987,0 2.6498,0 0.9935,0 2.3185,0 3.312,0 0,-0.332 0,-0.332 0,-0.662 0,-3.6438 3.312,-4.3059 6.2932,-4.3059 v 0.9935 c 0,1.325 0,2.6499 -0.6621,3.9744 2.3185,0 4.3055,-0.331 6.624,-0.331 0,-0.331 0,-0.662 0,-0.9935 v -6.624 c 6e-4,-2.9812 6e-4,-5.6311 -1.9871,-7.2874 z"
       fill="#545e60"
       id="path38" />
    <path
       d="m 45.3755,83.7971 c -2.3184,0 -4.6369,1.3249 -5.6304,3.9747 -1.3249,-2.6498 -2.9806,-3.9747 -5.2997,-3.9747 -2.6499,0 -4.6369,1.3249 -5.6305,3.9747 V 85.122 c -0.3314,-0.6621 -0.6621,-0.9935 -0.9935,-0.9935 h -3.9748 c -0.3314,0 -0.6621,0.3314 -0.6621,0.6621 v 12.9172 c 1.9871,0.3314 3.6434,0.6621 5.6304,0.9935 v -3.9748 c 0,-2.6498 0,-5.9618 2.9806,-5.9618 2.9806,0 2.6499,3.6434 2.6499,5.9618 v 4.6369 c 1.987,0.3314 3.9748,0.3314 5.6304,0.6626 v -5.3002 c 0,-1.3249 0,-2.9805 0.3314,-3.9747 0.3314,-0.9936 1.3249,-1.6564 2.6499,-1.6564 1.3249,0 2.3184,0.3314 2.3184,1.9871 0.3314,0.9935 0,2.9806 0,3.9748 v 5.6304 c 1.9871,0 3.9748,0.331 5.6304,0.331 v -7.9485 c 0,-2.3184 0.3314,-4.9683 -0.9935,-6.6239 -0.9935,-1.9864 -2.9806,-2.6485 -4.6369,-2.6485 z"
       fill="#545e60"
       id="path40" />
    <path
       d="m 9.93592,83.4656 c -3.97478,0 -8.28028,1.325 -9.273811,6.2933 0,0.6621 0.3314,0.6621 0.662131,0.9935 l 3.97478,0.3314 c 0.3314,0 0.66212,-0.3314 0.66212,-0.6621 0.3314,-1.6564 1.65633,-2.6499 3.31198,-2.6499 0.99348,0 1.98708,0.3314 2.31848,0.9935 0.6621,0.9936 0.6621,1.9871 0.6621,2.9806 v 0.6622 c -1.9871,0.6621 -4.9683,0.6621 -7.28676,1.6563 4.30551,1.3249 8.61166,2.3184 13.24856,3.312 v -4.3055 c 0,-2.6499 0.3314,-5.2998 -1.987,-7.2868 -1.3243,-1.6557 -3.9741,-2.3185 -6.29258,-2.3185 z"
       fill="#545e60"
       id="path42" />
  </g>
  <defs
     id="defs49">
    <clipPath
       id="clip0">
      <rect
         width="208"
         height="208"
         fill="#ffffff"
         id="rect46"
         x="0"
         y="0" />
    </clipPath>
  </defs>
</svg>
