<svg width="184" height="124" viewBox="0 0 184 124" fill="none" xmlns="http://www.w3.org/2000/svg">
<path d="M175.951 124H8.04899C3.54156 124 0 120.453 0 115.938V8.06242C0 3.54746 3.54156 0 8.04899 0H175.951C180.458 0 184 3.54746 184 8.06242V115.776C184 120.291 180.458 124 175.951 124Z" fill="#FAFAFA"/>
<path d="M175.951 0H8.04899C3.54156 0 0 3.54746 0 8.06242V15.1573H184V8.06242C184 3.54746 180.458 0 175.951 0Z" fill="#A4A4F7"/>
<path d="M160.336 7.90117C160.336 9.19116 159.37 10.1586 158.082 10.1586C156.794 10.1586 155.828 9.19116 155.828 7.90117C155.828 6.61118 156.794 5.64369 158.082 5.64369C159.37 5.64369 160.336 6.61118 160.336 7.90117Z" fill="#CFCFFF"/>
<path d="M169.834 7.90117C169.834 9.19116 168.868 10.1586 167.58 10.1586C166.292 10.1586 165.326 9.19116 165.326 7.90117C165.326 6.61118 166.292 5.64369 167.58 5.64369C168.868 5.48244 169.834 6.61118 169.834 7.90117Z" fill="#CFCFFF"/>
<path d="M179.332 7.90117C179.332 9.19116 178.366 10.1586 177.078 10.1586C175.79 10.1586 174.824 9.19116 174.824 7.90117C174.824 6.61118 175.79 5.64369 177.078 5.64369C178.366 5.48244 179.332 6.61118 179.332 7.90117Z" fill="#CFCFFF"/>
</svg>
