<svg width="262" height="113" viewBox="0 0 262 113" fill="none" xmlns="http://www.w3.org/2000/svg">
<path d="M58.8033 110.43H55.7138L55.08 111.856H54.2086L56.8228 106.073H57.615L60.2293 111.856H59.3579L58.8033 110.43ZM58.5657 109.717L57.2982 106.865L56.0307 109.717H58.5657Z" fill="#B9B9B9"/>
<path d="M69.2602 106.073V111.856H68.5473L65.0616 107.499V111.856H64.2694V106.073H64.9824L68.468 110.43V106.073H69.2602Z" fill="#B9B9B9"/>
<path d="M75.6769 111.143V111.856H71.4783V106.073H75.5977V106.786H72.3497V108.608H75.2808V109.321H72.3497V111.222H75.6769V111.143Z" fill="#B9B9B9"/>
<path d="M85.5794 106.073L83.5989 111.856H82.8067L81.2223 107.182L79.6379 111.856H78.7665L76.786 106.073H77.6575L79.2418 110.826L80.9054 106.073H81.6976L83.282 110.826L84.8664 106.073H85.5794Z" fill="#B9B9B9"/>
<path d="M89.778 106.073H92.2337C92.8675 106.073 93.422 106.232 93.8973 106.469C94.3727 106.707 94.7687 107.024 95.0064 107.499C95.2441 107.974 95.4025 108.45 95.4025 109.004C95.4025 109.559 95.2441 110.113 95.0064 110.509C94.7687 110.985 94.3727 111.302 93.8973 111.539C93.422 111.777 92.8675 111.935 92.2337 111.935H89.778V106.073ZM92.2337 111.143C92.709 111.143 93.1051 111.064 93.5012 110.905C93.8973 110.747 94.135 110.43 94.2934 110.113C94.4519 109.796 94.6103 109.4 94.6103 109.004C94.6103 108.608 94.5311 108.212 94.2934 107.895C94.135 107.578 93.8181 107.341 93.5012 107.103C93.1051 106.945 92.709 106.865 92.2337 106.865H90.6494V111.222H92.2337V111.143Z" fill="#B9B9B9"/>
<path d="M97.0661 106.073H97.8583V111.856H97.0661V106.073Z" fill="#B9B9B9"/>
<path d="M105.463 111.856V107.578L103.324 111.143H102.928L100.789 107.657V111.856H99.9972V106.073H100.71L103.166 110.193L105.542 106.073H106.255V111.856H105.463Z" fill="#B9B9B9"/>
<path d="M112.672 111.143V111.856H108.474V106.073H112.593V106.786H109.345V108.608H112.276V109.321H109.345V111.222H112.672V111.143Z" fill="#B9B9B9"/>
<path d="M119.406 106.073V111.856H118.693L115.207 107.499V111.856H114.415V106.073H115.128L118.614 110.43V106.073H119.406Z" fill="#B9B9B9"/>
<path d="M122.02 111.698C121.624 111.539 121.307 111.381 121.069 111.143L121.386 110.509C121.624 110.747 121.862 110.906 122.258 110.985C122.575 111.143 122.971 111.143 123.288 111.143C123.763 111.143 124.159 111.064 124.397 110.906C124.634 110.747 124.793 110.509 124.793 110.272C124.793 110.034 124.714 109.876 124.634 109.797C124.476 109.638 124.317 109.559 124.159 109.48C124.001 109.4 123.684 109.321 123.367 109.242C122.891 109.163 122.575 109.004 122.337 108.925C122.099 108.846 121.862 108.687 121.624 108.45C121.466 108.212 121.307 107.974 121.307 107.578C121.307 107.261 121.386 107.024 121.545 106.707C121.703 106.469 121.941 106.232 122.258 106.073C122.575 105.915 122.971 105.836 123.525 105.836C123.842 105.836 124.238 105.915 124.555 105.994C124.872 106.073 125.189 106.232 125.427 106.39L125.189 107.024C124.951 106.865 124.714 106.786 124.397 106.707C124.08 106.628 123.842 106.549 123.604 106.549C123.129 106.549 122.812 106.628 122.575 106.786C122.337 106.945 122.258 107.182 122.258 107.42C122.258 107.658 122.337 107.816 122.495 107.895C122.654 108.054 122.812 108.133 122.971 108.212C123.129 108.291 123.446 108.371 123.763 108.45C124.238 108.529 124.555 108.687 124.793 108.767C125.03 108.846 125.268 109.004 125.506 109.242C125.664 109.48 125.823 109.717 125.823 110.113C125.823 110.43 125.743 110.668 125.585 110.985C125.426 111.302 125.189 111.46 124.793 111.619C124.397 111.777 124.001 111.856 123.525 111.856C122.891 111.935 122.416 111.856 122.02 111.698Z" fill="#B9B9B9"/>
<path d="M127.169 106.073H127.961V111.856H127.169V106.073Z" fill="#B9B9B9"/>
<path d="M131.209 111.539C130.734 111.302 130.338 110.905 130.1 110.509C129.863 110.034 129.704 109.559 129.704 109.004C129.704 108.45 129.863 107.974 130.1 107.499C130.338 107.024 130.734 106.707 131.209 106.469C131.685 106.232 132.239 106.073 132.794 106.073C133.348 106.073 133.903 106.232 134.378 106.469C134.854 106.707 135.25 107.103 135.487 107.499C135.725 107.974 135.883 108.45 135.883 109.004C135.883 109.559 135.725 110.113 135.487 110.509C135.25 110.985 134.854 111.302 134.378 111.539C133.903 111.777 133.348 111.935 132.794 111.935C132.239 111.935 131.685 111.777 131.209 111.539ZM133.982 110.905C134.299 110.747 134.616 110.43 134.774 110.113C134.933 109.796 135.091 109.4 135.091 109.004C135.091 108.608 135.012 108.212 134.774 107.895C134.616 107.578 134.299 107.261 133.982 107.103C133.665 106.945 133.269 106.786 132.794 106.786C132.398 106.786 132.002 106.865 131.606 107.103C131.209 107.341 130.972 107.578 130.813 107.895C130.655 108.212 130.497 108.608 130.497 109.004C130.497 109.4 130.576 109.796 130.813 110.113C130.972 110.43 131.289 110.747 131.606 110.905C131.922 111.064 132.319 111.222 132.794 111.222C133.19 111.222 133.586 111.064 133.982 110.905Z" fill="#B9B9B9"/>
<path d="M142.617 106.073V111.856H141.904L138.418 107.499V111.856H137.626V106.073H138.339L141.825 110.43V106.073H142.617Z" fill="#B9B9B9"/>
<path d="M148.479 111.539C148.004 111.302 147.608 110.905 147.37 110.509C147.132 110.034 146.974 109.559 146.974 109.004C146.974 108.45 147.132 107.974 147.37 107.499C147.608 107.024 148.004 106.707 148.479 106.469C148.954 106.232 149.509 106.073 150.064 106.073C150.618 106.073 151.173 106.232 151.648 106.469C152.123 106.707 152.519 107.103 152.757 107.499C152.995 107.974 153.153 108.45 153.153 109.004C153.153 109.559 152.995 110.113 152.757 110.509C152.519 110.985 152.123 111.302 151.648 111.539C151.173 111.777 150.618 111.935 150.064 111.935C149.43 111.935 148.875 111.777 148.479 111.539ZM151.173 110.905C151.49 110.747 151.806 110.43 151.965 110.113C152.123 109.796 152.282 109.4 152.282 109.004C152.282 108.608 152.202 108.212 151.965 107.895C151.806 107.578 151.49 107.261 151.173 107.103C150.856 106.945 150.46 106.786 149.984 106.786C149.588 106.786 149.192 106.865 148.796 107.103C148.4 107.341 148.162 107.578 148.004 107.895C147.845 108.212 147.687 108.608 147.687 109.004C147.687 109.4 147.766 109.796 148.004 110.113C148.162 110.43 148.479 110.747 148.796 110.905C149.113 111.064 149.509 111.222 149.984 111.222C150.46 111.222 150.856 111.064 151.173 110.905Z" fill="#B9B9B9"/>
<path d="M155.609 106.786V108.846H158.54V109.559H155.609V111.935H154.817V106.152H158.936V106.865H155.609V106.786Z" fill="#B9B9B9"/>
<path d="M167.175 108.925H167.967V111.222C167.65 111.46 167.333 111.618 166.937 111.777C166.541 111.935 166.145 111.935 165.749 111.935C165.194 111.935 164.64 111.777 164.165 111.539C163.689 111.302 163.293 110.905 163.055 110.509C162.818 110.034 162.659 109.559 162.659 109.004C162.659 108.45 162.818 107.895 163.055 107.499C163.293 107.024 163.689 106.707 164.165 106.469C164.64 106.232 165.194 106.073 165.749 106.073C166.224 106.073 166.62 106.152 167.016 106.311C167.413 106.469 167.729 106.707 167.967 106.945L167.413 107.499C166.937 107.024 166.383 106.786 165.749 106.786C165.274 106.786 164.878 106.865 164.561 107.103C164.244 107.261 163.927 107.578 163.768 107.895C163.531 108.212 163.452 108.608 163.452 109.083C163.452 109.48 163.531 109.876 163.768 110.193C164.006 110.509 164.244 110.826 164.561 110.985C164.878 111.143 165.274 111.302 165.749 111.302C166.303 111.302 166.7 111.143 167.096 110.905V108.925H167.175Z" fill="#B9B9B9"/>
<path d="M173.671 110.43H170.581L169.948 111.856H169.076L171.69 106.073H172.483L175.097 111.856H174.225L173.671 110.43ZM173.433 109.717L172.166 106.865L170.898 109.717H173.433Z" fill="#B9B9B9"/>
<path d="M181.91 111.856V107.578L179.771 111.143H179.375L177.236 107.657V111.856H176.444V106.073H177.156L179.612 110.193L181.989 106.073H182.702V111.856H181.91Z" fill="#B9B9B9"/>
<path d="M184.841 106.073H185.633V111.856H184.841V106.073Z" fill="#B9B9B9"/>
<path d="M188.643 106.786V108.846H191.574V109.559H188.643V111.935H187.851V106.152H191.97V106.865H188.643V106.786Z" fill="#B9B9B9"/>
<path d="M193.555 106.073H194.347V111.856H193.555V106.073Z" fill="#B9B9B9"/>
<path d="M197.595 111.539C197.12 111.302 196.724 110.905 196.486 110.509C196.248 110.113 196.09 109.559 196.09 109.004C196.09 108.45 196.248 107.895 196.486 107.499C196.724 107.103 197.12 106.707 197.595 106.469C198.07 106.232 198.625 106.073 199.179 106.073C199.655 106.073 200.051 106.152 200.447 106.311C200.843 106.469 201.16 106.707 201.397 107.024L200.843 107.578C200.368 107.103 199.892 106.865 199.179 106.865C198.783 106.865 198.387 106.945 197.991 107.182C197.595 107.42 197.357 107.657 197.199 107.974C197.04 108.291 196.882 108.687 196.882 109.083C196.882 109.48 196.961 109.876 197.199 110.193C197.357 110.509 197.674 110.826 197.991 110.985C198.308 111.143 198.704 111.302 199.179 111.302C199.813 111.302 200.368 111.064 200.843 110.589L201.397 111.143C201.16 111.46 200.843 111.698 200.447 111.856C200.051 112.015 199.655 112.094 199.179 112.094C198.546 111.935 198.07 111.777 197.595 111.539Z" fill="#B9B9B9"/>
<path d="M206.547 110.43H203.457L202.823 111.856H201.952L204.566 106.073H205.358L207.973 111.856H207.18L206.547 110.43ZM206.23 109.717L204.962 106.865L203.695 109.717H206.23Z" fill="#B9B9B9"/>
<path d="M210.191 106.786H208.21V106.073H213.043V106.786H211.062V111.856H210.27V106.786H210.191Z" fill="#B9B9B9"/>
<path d="M214.31 106.073H215.102V111.856H214.31V106.073Z" fill="#B9B9B9"/>
<path d="M218.35 111.539C217.875 111.302 217.479 110.905 217.241 110.509C217.004 110.034 216.845 109.559 216.845 109.004C216.845 108.45 217.004 107.974 217.241 107.499C217.479 107.024 217.875 106.707 218.35 106.469C218.826 106.232 219.38 106.073 219.935 106.073C220.489 106.073 221.044 106.232 221.519 106.469C221.994 106.707 222.391 107.103 222.628 107.499C222.866 107.974 223.024 108.45 223.024 109.004C223.024 109.559 222.866 110.113 222.628 110.509C222.391 110.985 221.994 111.302 221.519 111.539C221.044 111.777 220.489 111.935 219.935 111.935C219.38 111.935 218.826 111.777 218.35 111.539ZM221.123 110.905C221.44 110.747 221.757 110.43 221.915 110.113C222.074 109.796 222.232 109.4 222.232 109.004C222.232 108.608 222.153 108.212 221.915 107.895C221.757 107.578 221.44 107.261 221.123 107.103C220.806 106.945 220.41 106.786 219.935 106.786C219.539 106.786 219.143 106.865 218.746 107.103C218.35 107.341 218.113 107.578 217.954 107.895C217.796 108.212 217.637 108.608 217.637 109.004C217.637 109.4 217.717 109.796 217.954 110.113C218.113 110.43 218.43 110.747 218.746 110.905C219.063 111.064 219.459 111.222 219.935 111.222C220.41 111.222 220.806 111.064 221.123 110.905Z" fill="#B9B9B9"/>
<path d="M229.758 106.073V111.856H229.045L225.559 107.499V111.856H224.767V106.073H225.48L228.966 110.43V106.073H229.758Z" fill="#B9B9B9"/>
<path d="M234.59 106.073H235.382V111.143H238.551V111.856H234.59V106.073Z" fill="#B9B9B9"/>
<path d="M244.176 111.143V111.856H239.977V106.073H244.097V106.786H240.849V108.608H243.78V109.321H240.849V111.222H244.176V111.143Z" fill="#B9B9B9"/>
<path d="M250.909 106.073L248.374 111.856H247.582L245.047 106.073H245.919L247.978 110.826L250.117 106.073H250.909Z" fill="#B9B9B9"/>
<path d="M256.296 111.143V111.856H252.098V106.073H256.217V106.786H252.969V108.608H255.9V109.321H252.969V111.222H256.296V111.143Z" fill="#B9B9B9"/>
<path d="M258.039 106.073H258.831V111.143H262V111.856H258.039V106.073Z" fill="#B9B9B9"/>
<path d="M76.0731 63.6119C78.3704 65.5132 79.4795 68.1274 79.4795 71.3754C79.4795 74.7026 78.3704 77.3168 76.0731 79.1388C73.7757 81.0401 70.6862 81.9907 66.7253 81.9907H59.1995V91.2593H54.8424V60.76H66.7253C70.6862 60.76 73.855 61.7106 76.0731 63.6119ZM72.9836 76.4454C74.4095 75.2571 75.2017 73.5935 75.2017 71.3754C75.2017 69.1572 74.4887 67.4936 72.9836 66.3053C71.5576 65.1171 69.4187 64.5625 66.646 64.5625H59.1995V78.2674H66.646C69.4187 78.2674 71.4784 77.6337 72.9836 76.4454Z" fill="#1E115F"/>
<path d="M85.7378 58.938H89.9364V91.2593H85.7378V58.938Z" fill="#1E115F"/>
<path d="M113.623 70.3455C115.286 71.9299 116.158 74.2272 116.158 77.396V91.3385H112.197V88.249C111.484 89.358 110.533 90.1502 109.187 90.7048C107.919 91.2593 106.335 91.5762 104.592 91.5762C101.978 91.5762 99.918 90.9424 98.4129 89.6749C96.8285 88.4074 96.1155 86.823 96.1155 84.7633C96.1155 82.7036 96.8285 81.1193 98.3336 79.8518C99.8388 78.5843 102.136 78.0297 105.384 78.0297H112.039V77.2375C112.039 75.4155 111.484 74.0688 110.454 73.1182C109.424 72.1675 107.84 71.6922 105.859 71.6922C104.513 71.6922 103.166 71.9299 101.819 72.4052C100.552 72.8805 99.4427 73.435 98.4921 74.2272L96.7493 71.0585C97.9375 70.1078 99.3635 69.3949 101.027 68.8403C102.691 68.365 104.433 68.0481 106.335 68.0481C109.504 67.9689 111.959 68.7611 113.623 70.3455ZM109.424 87.2191C110.613 86.5062 111.405 85.4763 111.959 84.2088V80.9608H105.543C101.978 80.9608 100.235 82.1491 100.235 84.5257C100.235 85.714 100.71 86.5854 101.582 87.2983C102.453 87.9321 103.721 88.3282 105.305 88.3282C106.889 88.3282 108.315 87.9321 109.424 87.2191Z" fill="#1E115F"/>
<path d="M143.964 68.2065L132.715 93.5566C131.764 95.9332 130.576 97.5968 129.229 98.5474C127.882 99.498 126.298 99.9733 124.476 99.9733C123.367 99.9733 122.258 99.8149 121.149 99.4188C120.119 99.0227 119.247 98.5474 118.534 97.8344L120.357 94.6657C121.545 95.7747 122.892 96.3293 124.476 96.3293C125.506 96.3293 126.377 96.0916 127.011 95.5371C127.724 94.9826 128.278 94.1111 128.833 92.7644L129.546 91.18L119.327 68.1273H123.684L131.764 86.5853L139.765 68.1273H143.964V68.2065Z" fill="#1E115F"/>
<path d="M161.471 89.9126C160.837 90.4671 160.124 90.8632 159.174 91.1009C158.302 91.3385 157.352 91.497 156.401 91.497C154.104 91.497 152.282 90.8632 151.014 89.5957C149.747 88.3282 149.113 86.5854 149.113 84.2088V71.5338H145.152V68.1274H149.113V63.0574H153.312V68.1274H159.966V71.5338H153.312V84.0504C153.312 85.3179 153.628 86.2685 154.262 86.9023C154.896 87.536 155.767 87.9321 156.956 87.9321C158.223 87.9321 159.332 87.536 160.204 86.8231L161.471 89.9126Z" fill="#1E115F"/>
<path d="M185.871 70.504C187.613 72.1676 188.485 74.7026 188.485 77.9505V91.2593H184.286V78.4259C184.286 76.2077 183.732 74.4649 182.702 73.3559C181.593 72.2468 180.088 71.6922 178.107 71.6922C175.81 71.6922 174.067 72.326 172.72 73.6727C171.453 75.0194 170.74 76.9207 170.74 79.3765V91.2593H166.541V58.938H170.74V71.4546C171.611 70.3455 172.72 69.4741 174.146 68.9196C175.572 68.2858 177.156 67.969 178.899 67.969C181.83 67.969 184.128 68.8404 185.871 70.504Z" fill="#1E115F"/>
<path d="M217.162 81.1193H198.387C198.625 83.179 199.575 84.7634 201.081 86.0309C202.586 87.2984 204.487 87.8529 206.784 87.8529C209.557 87.8529 211.775 86.9023 213.439 85.0803L215.736 87.7737C214.706 88.962 213.36 89.9126 211.854 90.5464C210.27 91.1802 208.527 91.497 206.626 91.497C204.17 91.497 202.031 91.0217 200.13 89.9919C198.229 88.962 196.803 87.6153 195.773 85.7933C194.743 83.9712 194.189 81.9908 194.189 79.6934C194.189 77.4753 194.664 75.4156 195.694 73.6728C196.724 71.8507 198.07 70.504 199.813 69.4741C201.556 68.4443 203.536 67.969 205.755 67.969C207.973 67.969 209.953 68.4443 211.696 69.4741C213.439 70.504 214.786 71.8507 215.736 73.6728C216.687 75.4948 217.162 77.5545 217.162 79.8518C217.241 80.1687 217.162 80.5648 217.162 81.1193ZM200.764 73.3559C199.417 74.5442 198.625 76.2078 198.387 78.1882H213.201C212.963 76.2078 212.171 74.6234 210.825 73.4351C209.478 72.1676 207.814 71.6131 205.755 71.6131C203.774 71.5338 202.11 72.0884 200.764 73.3559Z" fill="#1E115F"/>
<path d="M258.831 70.504C260.495 72.1676 261.366 74.7026 261.366 78.0298V91.3386H257.168V78.5051C257.168 76.287 256.613 74.5441 255.583 73.4351C254.553 72.326 253.048 71.7715 251.147 71.7715C249.008 71.7715 247.345 72.4052 246.077 73.752C244.81 75.0987 244.176 76.9999 244.176 79.4557V91.3386H239.977V78.5051C239.977 76.287 239.423 74.5441 238.393 73.4351C237.363 72.326 235.858 71.7715 233.957 71.7715C231.818 71.7715 230.154 72.4052 228.886 73.752C227.619 75.0987 226.985 76.9999 226.985 79.4557V91.3386H223.024V68.2858H227.064V71.6923C227.936 70.504 229.045 69.6326 230.392 68.9988C231.738 68.3651 233.323 68.0482 235.066 68.0482C236.888 68.0482 238.472 68.4443 239.819 69.1572C241.245 69.8702 242.274 70.9793 243.067 72.326C243.938 70.9793 245.126 69.9494 246.711 69.1572C248.295 68.3651 250.038 68.0482 251.939 68.0482C254.791 67.969 257.088 68.8404 258.831 70.504Z" fill="#1E115F"/>
<path d="M26.7989 87.6153C29.2546 89.0412 31.7897 90.2295 34.4831 91.1009C36.5428 91.7346 38.7609 92.2892 40.7414 92.1307C45.1777 92.1307 45.0984 96.1709 43.9894 97.8345C43.1972 99.0228 42.405 99.815 36.9389 98.0722C29.8092 95.7748 17.5302 91.8931 6.99412 75.6532C-3.54201 59.4133 0.418941 38.1826 2.39942 33.7464C4.37989 29.3101 8.34084 13.4663 38.444 10.2975C68.5473 7.12878 82.8067 42.7773 82.8067 42.7773L87.7975 52.1252C87.7975 52.1252 79.2418 51.4914 75.4393 43.1734C71.6368 34.8554 67.8343 31.449 67.8343 31.449C67.8343 31.449 59.3579 21.7843 47.3166 20.7544C35.2753 19.7246 25.2145 22.3388 15.1537 35.7268C5.09286 49.1148 8.26162 65.4339 11.4304 70.7416C14.5199 75.8909 16.342 79.6141 25.056 86.427C25.6106 86.8231 26.1651 87.2192 26.7989 87.6153Z" fill="url(#paint0_linear)"/>
<path d="M7.46937 24.8738C7.16478 25.2906 6.40554 24.8916 6.65744 24.441C8.62768 20.9164 11.148 17.2845 14.203 14.5753C22.6002 7.12873 32.1065 -0.000976562 51.9112 -0.000976562C71.716 -0.000976562 88.4312 15.7636 92.3129 23.6855C97.066 31.6866 103.087 43.7279 95.3232 49.9862C87.5598 56.2445 77.895 48.0057 76.786 43.8071C75.9375 40.5949 74.9962 38.2638 74.6008 37.3457C74.476 37.056 74.3522 36.7769 74.2241 36.4887C73.2405 34.2747 68.4191 24.0313 61.6551 19.8038C56.8228 16.8727 53.7333 15.1298 48.584 13.6247C44.5438 12.4364 39.9492 11.565 33.6908 11.8819C17.0549 12.6741 8.97453 22.8141 7.46937 24.8738Z" fill="url(#paint1_linear)"/>
<path d="M89.1441 50.3823H88.6688C82.9651 49.9862 78.5288 46.2629 76.9444 40.7968C74.4094 31.7658 68.7056 17.4272 48.6632 11.8026C28.6208 6.17809 8.02391 14.813 2.16171 34.6969C2.24093 34.3801 2.32015 34.1424 2.39937 33.8255C2.08249 34.6969 1.84483 35.5683 1.60718 36.4397C7.46938 16.635 28.0663 7.92092 48.1087 13.5455C68.1511 19.17 73.9341 33.5879 76.3899 42.5396C77.895 48.0057 82.4105 51.8082 88.1143 52.1251H88.5896C93.6596 52.442 97.779 48.9563 98.8089 44.3616C97.2245 48.0849 93.5012 50.6992 89.1441 50.3823Z" fill="url(#paint2_linear)"/>
<defs>
<linearGradient id="paint0_linear" x1="13.9564" y1="69.4881" x2="83.9894" y2="16.5147" gradientUnits="userSpaceOnUse">
<stop stop-color="#9B3DB4"/>
<stop offset="0.9993" stop-color="#00E6FF"/>
</linearGradient>
<linearGradient id="paint1_linear" x1="1.45451" y1="26.1344" x2="98.8738" y2="26.1344" gradientUnits="userSpaceOnUse">
<stop stop-color="#FF9D00"/>
<stop offset="0.9993" stop-color="#FF55E1"/>
</linearGradient>
<linearGradient id="paint2_linear" x1="7.2488" y1="18.3897" x2="97.9603" y2="47.0951" gradientUnits="userSpaceOnUse">
<stop stop-color="#8927B5"/>
<stop offset="1" stop-color="#8786FC" stop-opacity="0"/>
</linearGradient>
</defs>
</svg>
