<?xml version="1.0" encoding="UTF-8" standalone="no"?>
<svg
   xmlns:dc="http://purl.org/dc/elements/1.1/"
   xmlns:cc="http://creativecommons.org/ns#"
   xmlns:rdf="http://www.w3.org/1999/02/22-rdf-syntax-ns#"
   xmlns:svg="http://www.w3.org/2000/svg"
   xmlns="http://www.w3.org/2000/svg"
   xmlns:sodipodi="http://sodipodi.sourceforge.net/DTD/sodipodi-0.dtd"
   xmlns:inkscape="http://www.inkscape.org/namespaces/inkscape"
   width="192"
   height="61.935799"
   viewBox="0 0 192 61.935799"
   fill="none"
   version="1.1"
   id="svg37"
   sodipodi:docname="shopify.svg"
   inkscape:version="1.0.2-2 (e86c870879, 2021-01-15)">
  <metadata
     id="metadata41">
    <rdf:RDF>
      <cc:Work
         rdf:about="">
        <dc:format>image/svg+xml</dc:format>
        <dc:type
           rdf:resource="http://purl.org/dc/dcmitype/StillImage" />
      </cc:Work>
    </rdf:RDF>
  </metadata>
  <sodipodi:namedview
     pagecolor="#ffffff"
     bordercolor="#666666"
     borderopacity="1"
     objecttolerance="10"
     gridtolerance="10"
     guidetolerance="10"
     inkscape:pageopacity="0"
     inkscape:pageshadow="2"
     inkscape:window-width="1920"
     inkscape:window-height="1027"
     id="namedview39"
     showgrid="false"
     inkscape:zoom="4.4270833"
     inkscape:cx="96"
     inkscape:cy="66.578971"
     inkscape:window-x="-8"
     inkscape:window-y="-8"
     inkscape:window-maximized="1"
     inkscape:current-layer="svg37" />
  <g
     clip-path="url(#clip0)"
     id="g30"
     transform="translate(0,-65.0322)">
    <path
       d="m 2.16774,104.052 c 1.54839,0.929 4.64516,2.167 7.43226,1.858 2.4774,0 4.0258,-1.239 4.0258,-3.097 0,-1.548 -0.929,-2.787 -3.71612,-4.3356 -3.40645,-1.8581 -5.88387,-4.6452 -5.88387,-8.3613 0,-6.5032 5.57419,-10.8387 13.31609,-10.8387 3.4065,0 6.1936,0.6194 7.742,1.5484 l -2.1678,6.5032 c -1.2387,-0.6193 -3.4064,-1.2387 -5.5742,-1.2387 -2.4774,0 -4.3354,1.2387 -4.3354,3.0968 0,1.5484 1.2387,2.4774 3.4064,3.7161 3.4065,2.1678 6.5032,4.9548 6.5032,8.6708 0,7.123 -5.8838,11.458 -13.93545,11.149 -3.71613,0 -7.12259,-0.929 -8.98065,-2.168 z"
       fill="#b4e52c"
       id="path2" />
    <path
       d="m 24.7742,111.484 8.9806,-46.4518 h 8.9807 L 39.329,83.6129 v 0.3097 c 2.4774,-2.7871 5.5742,-4.6452 9.6,-4.6452 4.6452,0 7.4323,3.0968 7.4323,8.3613 0,1.5484 -0.3097,3.7161 -0.6194,5.5742 l -3.4064,18.2711 h -8.9807 l 3.4065,-17.9614 c 0.3096,-1.2388 0.3096,-2.4775 0.3096,-3.7162 0,-1.858 -0.929,-3.4064 -2.7871,-3.4064 -2.787,0 -5.8838,3.4064 -7.1225,9.2903 l -3.0968,15.4837 h -9.2903 z"
       fill="#b4e52c"
       id="path4" />
    <path
       d="m 89.4968,91.9742 c 0,11.1488 -7.1226,20.7488 -17.9613,20.7488 -8.0516,0 -12.3871,-5.575 -12.3871,-12.697 0,-11.1486 7.1226,-20.7486 18.2709,-20.7486 8.0517,0 12.0775,6.1936 12.0775,12.6968 z M 68.129,100.026 c 0,3.406 1.2387,5.884 4.3355,5.884 4.9548,0 7.4323,-8.6713 7.4323,-14.2455 0,-2.7871 -0.9291,-5.5742 -4.3355,-5.5742 -4.6452,0.3097 -7.4323,8.671 -7.4323,13.9357 z"
       fill="#b4e52c"
       id="path6" />
    <path
       d="m 87.0193,123.871 6.1936,-32.2065 c 0.6193,-3.7162 1.5484,-8.0516 1.8581,-11.1484 h 8.052 l -0.62,3.0968 c 2.478,-3.0968 5.884,-4.9549 9.6,-4.9549 6.503,0 9.291,5.8839 9.291,11.7678 0,11.1482 -7.123,21.9872 -17.652,21.9872 -1.548,0.31 -3.716,-0.929 -4.6452,-0.929 h -0.3097 l -2.4774,12.387 z m 13.0067,-19.2 c 0.929,0.929 2.168,1.239 3.716,1.239 4.955,0 8.671,-8.3617 8.671,-14.2455 0,-2.4774 -0.929,-4.9549 -3.716,-4.9549 -3.097,0 -6.194,3.7162 -7.123,9.2904 z"
       fill="#b4e52c"
       id="path8" />
    <path
       d="m 122.323,111.484 6.193,-30.9679 h 9.29 l -6.193,30.9679 z M 134.09,77.4193 c -2.477,0 -4.335,-2.4774 -4.335,-5.2645 0,-3.0968 2.168,-5.5742 5.264,-5.5742 2.787,0 4.645,2.4774 4.645,4.9549 -0.309,3.4064 -2.787,5.8838 -5.574,5.8838 z"
       fill="#b4e52c"
       id="path10" />
    <path
       d="m 139.355,111.484 4.955,-24.7744 h -4.336 l 1.239,-6.1935 h 4.335 l 0.31,-1.8581 c 0.619,-3.7161 2.168,-7.7419 5.265,-10.529 2.477,-2.1677 5.574,-3.0968 8.98,-3.0968 2.168,0 4.026,0.3097 4.955,0.6194 l -1.858,7.1226 c -0.929,-0.3097 -1.858,-0.6194 -2.787,-0.6194 -3.097,0 -4.955,3.0968 -5.265,6.1936 l -0.929,2.1677 h 6.194 l -1.239,6.1935 h -6.193 l -4.955,24.7744 z"
       fill="#b4e52c"
       id="path12" />
    <path
       d="m 171.871,80.5161 1.548,14.2452 c 0.31,3.0968 0.62,4.3355 0.929,7.4327 0.62,-3.0972 1.239,-4.0263 2.787,-7.4327 L 182.71,80.5161 H 192 l -11.148,23.5359 c -4.026,8.051 -7.742,13.935 -12.078,17.961 -3.097,3.097 -7.122,4.335 -8.98,4.955 l -2.478,-7.742 c 1.548,-0.62 3.407,-1.239 5.265,-2.478 2.167,-1.548 4.025,-3.406 4.954,-5.574 0.31,-0.309 0.31,-0.619 0.31,-1.239 l -5.574,-29.4189 z"
       fill="#b4e52c"
       id="path14" />
    <path
       d="m 17.3419,79.2774 c 3.4065,0 6.1936,0.6194 7.742,1.5484 l -2.1678,6.5032 c -1.2387,-0.6193 -3.4064,-1.2387 -5.5742,-1.2387 -2.4774,0 -4.3354,1.2387 -4.3354,3.0968 0,1.5484 1.2387,2.4774 3.4064,3.7161 3.4065,2.1678 6.5032,4.9548 6.5032,8.6708 0,7.123 -5.8838,11.458 -13.93545,11.149 -3.71613,0 -7.12259,-0.929 -8.98065,-2.168 l 2.16774,-6.503 c 1.54839,0.929 4.64516,2.167 7.43226,1.858 2.4774,0 4.0258,-1.239 4.0258,-3.097 0,-1.548 -0.929,-2.787 -3.71612,-4.3356 C 6.50323,96.6193 4.02581,93.8322 4.02581,90.1161"
       fill="#8bb43f"
       id="path16" />
    <path
       d="m 24.7742,111.484 8.0516,-36.8517 9.9097,-8.9807 -3.4065,18.271 c 2.4774,-2.7871 5.5742,-4.6452 9.6,-4.6452 4.6452,0 7.4323,3.0968 7.4323,8.3613 0,1.5484 -0.3097,3.7161 -0.6194,5.5742 l -3.4064,18.2711 h -8.9807 l 3.4065,-17.9614 c 0.3096,-1.2387 0.3096,-2.4774 0.3096,-3.7162 0,-1.858 -0.929,-3.4064 -2.7871,-3.4064 -2.787,0 -5.8838,3.4064 -7.1225,9.2903 l -3.0968,15.4837 h -9.2903 z"
       fill="#8bb43f"
       id="path18" />
    <path
       d="m 77.1097,79.2774 c 8.3613,0 12.3871,6.1936 12.3871,12.6968 0,11.1488 -7.1226,20.7488 -17.9613,20.7488 -8.0516,0 -12.3871,-5.575 -12.3871,-12.697 z M 68.129,100.026 c 0,3.406 1.2387,5.884 4.3355,5.884 4.9548,0 7.4323,-8.6713 7.4323,-14.2455 0,-2.7871 -0.9291,-5.5742 -4.3355,-5.5742 -4.6452,0.3097 -7.4323,8.671 -7.4323,13.9357 z"
       fill="#8bb43f"
       id="path20" />
    <path
       d="m 103.432,80.5161 -0.619,3.0968 c 2.477,-3.0968 5.884,-4.9549 9.6,-4.9549 6.503,0 9.29,5.8839 9.29,11.7678 0,11.1482 -7.122,21.9872 -17.651,21.9872 -1.858,0.31 -4.026,-0.929 -4.9552,-0.929 h -0.3097 l -2.4774,12.387 H 87.329 l 6.1936,-32.8259 z m -3.406,24.1549 c 0.929,0.929 2.168,1.239 3.716,1.239 4.955,0 8.671,-8.3617 8.671,-14.2455 0,-2.4774 -0.929,-4.9549 -3.716,-4.9549 -3.097,0 -6.194,3.7162 -7.123,9.2904 z"
       fill="#8bb43f"
       id="path22" />
    <path
       d="m 122.323,111.484 6.193,-23.5356 9.29,-7.4323 -6.193,30.9679 z m 12.696,-44.9034 c 2.787,0 4.645,2.1678 4.645,4.9549 0,3.4064 -2.477,5.8838 -5.264,5.8838 -2.477,0 -4.335,-2.4774 -4.335,-5.2645"
       fill="#8bb43f"
       id="path24" />
    <path
       d="m 159.794,65.0322 c 2.167,0 4.025,0.3097 4.954,0.9291 l -1.858,7.1225 c -0.929,-0.3096 -1.858,-0.6193 -2.787,-0.6193 -3.097,0 -4.955,3.0968 -5.264,6.1935 l -0.62,1.8581 h 6.194 l -1.239,6.1935 h -6.193 l -4.955,24.7744 h -8.671 l 4.955,-24.7744 h -4.336 l 1.239,-6.1935 h 4.335 l 0.31,-1.8581"
       fill="#8bb43f"
       id="path26" />
    <path
       d="m 171.871,80.5161 1.548,13.9355 c 0.31,3.0968 0.62,4.6452 0.929,7.7424 0.62,-3.0972 1.239,-4.0263 2.787,-7.4327 L 182.71,80.5161 H 192 l -11.148,23.5359 c -4.026,8.051 -7.742,13.935 -12.078,17.961 -3.097,3.097 -7.122,4.335 -8.98,4.955 l -2.478,-7.742 c 1.548,-0.62 3.407,-1.239 5.265,-2.478 2.167,-1.548 4.025,-3.406 4.954,-5.574 0.31,-0.309 0.31,-0.929 0.31,-1.548 l -2.168,-22.297 z"
       fill="#8bb43f"
       id="path28" />
  </g>
  <defs
     id="defs35">
    <clipPath
       id="clip0">
      <rect
         width="192"
         height="192"
         fill="#ffffff"
         id="rect32"
         x="0"
         y="0" />
    </clipPath>
  </defs>
</svg>
